<?xml version="1.0" encoding="UTF-8"?>
<svg width="24px" height="24px" viewBox="0 0 24 24" version="1.1" xmlns="http://www.w3.org/2000/svg" xmlns:xlink="http://www.w3.org/1999/xlink">
    <!-- Generator: Sketch 42 (36781) - http://www.bohemiancoding.com/sketch -->
    <title>Group 214</title>
    <desc>Created with Sketch.</desc>
    <defs></defs>
    <g id="Page-1" stroke="none" stroke-width="1" fill="none" fill-rule="evenodd" stroke-linecap="round" stroke-linejoin="round">
        <g id="Icons" transform="translate(-384.000000, -1440.000000)" stroke="#000000">
            <g id="Group-214" transform="translate(384.000000, 1440.000000)">
                <path d="M23.5,8.5 C23.5,12.918 19.918,16.5 15.5,16.5 C11.082,16.5 7.5,12.918 7.5,8.5 C7.5,4.082 11.082,0.5 15.5,0.5 C19.918,0.5 23.5,4.082 23.5,8.5 L23.5,8.5 Z" id="Stroke-1745"></path>
                <path d="M10.209,14.5 L3,14.5 C1.619,14.5 0.5,15.619 0.5,17 C0.5,18.381 1.619,19.5 3,19.5 L20.5,19.5 C21.604,19.5 22.5,20.396 22.5,21.5 C22.5,22.604 21.604,23.5 20.5,23.5 L10.5,23.5" id="Stroke-1746"></path>
                <path d="M17,8.5 C17,9.328 16.328,10 15.5,10 C14.671,10 14,9.328 14,8.5 C14,7.672 14.671,7 15.5,7 C16.328,7 17,7.672 17,8.5 L17,8.5 Z" id="Stroke-1747"></path>
                <path d="M16.8389,5.2881 L17.7949,3.0001 C16.3759,2.5001 14.7339,2.3461 13.2029,2.9781 L13.2029,2.9681 L14.1599,5.2721 C15.0529,4.9021 16.0109,4.9371 16.8379,5.2791 L16.8389,5.2881 L16.8389,5.2881 Z" id="Stroke-1748"></path>
                <path d="M12.5,7.1602 L10,6.2042 L10,6.2052 C9.5,7.6242 9.345,9.2652 9.978,10.7962 L9.967,10.7972 L12.389,9.8412 C12.02,8.9472 12,7.9892 12.5,7.1622 L12.5,7.1602 L12.5,7.1602 Z" id="Stroke-1749"></path>
                <path d="M14.1602,11.5 L13.2032,14 L13.2052,14 C14.6232,14.5 16.2652,14.655 17.7952,14.021 L17.7962,14.033 L16.8392,11.611 C15.9452,11.98 14.9882,12 14.1612,11.5 L14.1602,11.5 L14.1602,11.5 Z" id="Stroke-1750"></path>
                <path d="M18.5,9.8408 L21,10.7958 L21,10.7948 C21.5,9.3768 21.654,7.7348 21.022,6.2038 L21.032,6.2028 L18.611,7.1598 C18.98,8.0528 19,9.0118 18.5,9.8378 L18.5,9.8408 L18.5,9.8408 Z" id="Stroke-1751"></path>
            </g>
        </g>
    </g>
</svg>