<?xml version="1.0" encoding="UTF-8"?>
<svg width="24px" height="24px" viewBox="0 0 24 24" version="1.1" xmlns="http://www.w3.org/2000/svg" xmlns:xlink="http://www.w3.org/1999/xlink">
    <!-- Generator: Sketch 42 (36781) - http://www.bohemiancoding.com/sketch -->
    <title>Group 1177</title>
    <desc>Created with Sketch.</desc>
    <defs></defs>
    <g id="Page-1" stroke="none" stroke-width="1" fill="none" fill-rule="evenodd" stroke-linejoin="round">
        <g id="Icons" transform="translate(-984.000000, -1920.000000)" stroke="#000000">
            <g id="Group-1177" transform="translate(984.000000, 1920.000000)">
                <path d="M5,10.5 C9.694,10.5 13.5,14.305 13.5,19" id="Stroke-804"></path>
                <path d="M5,5.5 C12.456,5.5 18.5,11.543 18.5,19" id="Stroke-805"></path>
                <path d="M8.5,17 C8.5,17.828 7.828,18.5 7,18.5 C6.172,18.5 5.5,17.828 5.5,17 C5.5,16.172 6.172,15.5 7,15.5 C7.828,15.5 8.5,16.172 8.5,17 L8.5,17 Z" id="Stroke-806"></path>
                <path d="M23.5,20.5 C23.5,22.15 22.15,23.5 20.5,23.5 L3.5,23.5 C1.85,23.5 0.5,22.15 0.5,20.5 L0.5,3.5 C0.5,1.85 1.85,0.5 3.5,0.5 L20.5,0.5 C22.15,0.5 23.5,1.85 23.5,3.5 L23.5,20.5 L23.5,20.5 Z" id="Stroke-807"></path>
            </g>
        </g>
    </g>
</svg>