<?xml version="1.0" encoding="UTF-8"?>
<svg width="24px" height="24px" viewBox="0 0 24 24" version="1.1" xmlns="http://www.w3.org/2000/svg" xmlns:xlink="http://www.w3.org/1999/xlink">
    <!-- Generator: Sketch 42 (36781) - http://www.bohemiancoding.com/sketch -->
    <title>Group 279</title>
    <desc>Created with Sketch.</desc>
    <defs></defs>
    <g id="Page-1" stroke="none" stroke-width="1" fill="none" fill-rule="evenodd" stroke-linecap="round" stroke-linejoin="round">
        <g id="Icons" transform="translate(0.000000, -1920.000000)" stroke="#000000">
            <g id="Group-279" transform="translate(0.000000, 1920.000000)">
                <path d="M23.5,21.5 C23.5,22.604 22.605,23.5 21.5,23.5 L2.5,23.5 C1.396,23.5 0.5,22.604 0.5,21.5 L0.5,16.5 C0.5,15.396 1.396,14.5 2.5,14.5 L21.5,14.5 C22.605,14.5 23.5,15.396 23.5,16.5 L23.5,21.5 L23.5,21.5 Z" id="Stroke-6199"></path>
                <path d="M15.5,8.5 C15.5,10.157 14.657,11.5 13,11.5 L10,11.5 C8.343,11.5 7.5,10.157 7.5,8.5 L7.5,3.5 C7.5,1.844 8.343,0.5 10,0.5 L13,0.5 C14.657,0.5 15.5,1.844 15.5,3.5 L15.5,8.5 L15.5,8.5 Z" id="Stroke-6200"></path>
                <path d="M11.5,9 L11.5,14.5" id="Stroke-6201"></path>
                <path d="M7.5,4.5 L10.5,4.5" id="Stroke-6202"></path>
                <path d="M7.5,6.5 L10.5,6.5" id="Stroke-6203"></path>
                <path d="M15.5,4.5 L13.5,4.5" id="Stroke-6204"></path>
                <path d="M15.5,6.5 L13.5,6.5" id="Stroke-6205"></path>
                <polyline id="Stroke-6206" points="7.5 20.5 7.5 17.5 9.5 20.5 9.5 17.5"></polyline>
                <path d="M5.5,19 C5.5,20.093 5.432,20.5 4.5,20.5 C3.567,20.5 3.5,20.093 3.5,19 C3.5,17.907 3.567,17.5 4.5,17.5 C5.432,17.5 5.5,17.907 5.5,19 L5.5,19 Z" id="Stroke-6207"></path>
                <path d="M16.5,20.5 L16.5,17.5" id="Stroke-6208"></path>
                <polyline id="Stroke-6209" points="14.6895 20.5 13.5945 17.5 12.5005 20.5"></polyline>
                <path d="M12.6826,20 L14.5066,20" id="Stroke-6210"></path>
                <path d="M18.5,20.5 L18.5,17.5 L19.294,17.5 C20.082,17.5 20.22,17.496 20.22,18.031 C20.22,18.566 20.082,19 19.294,19 L18.5,19" id="Stroke-6211"></path>
                <path d="M19.2939,19 L20.2199,20.5" id="Stroke-6212"></path>
            </g>
        </g>
    </g>
</svg>