<?xml version="1.0" encoding="UTF-8"?>
<svg width="20px" height="23px" viewBox="0 0 20 23" version="1.1" xmlns="http://www.w3.org/2000/svg" xmlns:xlink="http://www.w3.org/1999/xlink">
    <!-- Generator: Sketch 42 (36781) - http://www.bohemiancoding.com/sketch -->
    <title>Group</title>
    <desc>Created with Sketch.</desc>
    <defs></defs>
    <g id="Page-1" stroke="none" stroke-width="1" fill="none" fill-rule="evenodd" stroke-linecap="round" stroke-linejoin="round">
        <g id="Icons" transform="translate(-146.000000, -336.000000)" stroke="#000000">
            <g id="Group" transform="translate(146.000000, 336.000000)">
                <path d="M4.4873,13.4453 C3.8613,12.4473 3.5003,11.2653 3.5003,10.0003 C3.5003,6.4103 6.4103,3.5003 10.0003,3.5003 C13.5893,3.5003 16.5003,6.4103 16.5003,10.0003 C16.5003,11.2713 16.1343,12.4573 15.5033,13.4603" id="Stroke-359"></path>
                <path d="M3.0029,16.4258 C1.4489,14.7348 0.4999,12.4778 0.4999,9.9998 C0.4999,4.7528 4.7539,0.4998 9.9999,0.4998 C15.2459,0.4998 19.4999,4.7528 19.4999,9.9998 C19.4999,12.4648 18.5619,14.7088 17.0239,16.3988" id="Stroke-360"></path>
                <path d="M13.2529,15.7207 C13.3169,15.1557 13.1349,14.5897 12.7559,14.1657 C12.3759,13.7427 11.8339,13.4997 11.2659,13.4997 L8.7349,13.4997 C8.1659,13.4997 7.6229,13.7427 7.2439,14.1657 C6.8649,14.5897 6.6839,15.1557 6.7459,15.7207 L7.3029,20.7207 C7.4149,21.7347 8.2719,22.4997 9.2899,22.4997 L10.7099,22.4997 C11.7299,22.4997 12.5849,21.7347 12.6969,20.7207 L13.2529,15.7207 L13.2529,15.7207 Z" id="Stroke-361"></path>
                <path d="M12.5,9.042 C12.5,10.422 11.381,11.542 10,11.542 C8.619,11.542 7.5,10.422 7.5,9.042 C7.5,7.661 8.619,6.542 10,6.542 C11.381,6.542 12.5,7.661 12.5,9.042 L12.5,9.042 Z" id="Stroke-362"></path>
            </g>
        </g>
    </g>
</svg>