<?xml version="1.0" encoding="UTF-8"?>
<svg width="24px" height="24px" viewBox="0 0 24 24" version="1.1" xmlns="http://www.w3.org/2000/svg" xmlns:xlink="http://www.w3.org/1999/xlink">
    <!-- Generator: Sketch 42 (36781) - http://www.bohemiancoding.com/sketch -->
    <title>Group 959</title>
    <desc>Created with Sketch.</desc>
    <defs></defs>
    <g id="Page-1" stroke="none" stroke-width="1" fill="none" fill-rule="evenodd" stroke-linecap="round" stroke-linejoin="round">
        <g id="Icons" transform="translate(-1032.000000, -432.000000)" stroke="#000000">
            <g id="Group-959" transform="translate(1032.000000, 432.000000)">
                <polygon id="Stroke-6079" points="3.5 20.5 23.5 20.5 23.5 0.5 3.5 0.5"></polygon>
                <path d="M13.5,15.25 C13.5,16.375 12.493,17.5 11.25,17.5 C10.008,17.5 9,16.243 9,15 C9,13.757 10.008,12.5 11.25,12.5 L13.5,12.5 L13.5,15.25 L13.5,15.25 Z" id="Stroke-6080"></path>
                <path d="M13.5,14.5 L13.521,3.172 C13.521,5.902 18.643,4.833 16.285,11.5 L15.855,12.625" id="Stroke-6081"></path>
                <polyline id="Stroke-6082" points="3.5 4.5 0.5 4.5 0.5 23.5 19.5 23.5 19.5 20.5"></polyline>
            </g>
        </g>
    </g>
</svg>