<svg xmlns="http://www.w3.org/2000/svg"><symbol id="ico-arrow-right-sq" viewBox="0 0 25 24"><title>Group 92</title><g fill-rule="evenodd" stroke-linecap="round" stroke-linejoin="round"><path d="M.501 23.504h23v-23h-23z"/><path d="M9.004 6.004l6 6-6 6"/></g></symbol><symbol id="ico-close" viewBox="0 0 24 24"><title>ico-Group 67</title><g fill-rule="evenodd" stroke-linecap="round" stroke-linejoin="round"><path d="M.5.5l23 23M23.5.5l-23 23"/></g></symbol><symbol id="ico-exit" viewBox="0 0 23 23"><title>Group 936</title><g fill-rule="evenodd" stroke-linecap="round" stroke-linejoin="round"><path d="M22.5 11.5c0 6.075-4.925 11-11 11s-11-4.925-11-11 4.925-11 11-11 11 4.925 11 11z"/><path d="M7 16.5c-1 0-3-6 1-6h9.5"/><path d="M14.5 13.5l3-3-3-3"/></g></symbol><symbol id="ico-facebook" viewBox="0 0 14 24"><title>Stroke 29</title><path d="M12.768 7.5H8.5V5.595c0-.896.594-1.105 1.012-1.105H12.5V.548L8.17.535c-3.925 0-4.67 2.939-4.67 4.82V7.5h-3v4h3v12h5v-12h3.85l.418-4z" fill-rule="evenodd" stroke-linejoin="round"/></symbol><symbol id="ico-instagram" viewBox="0 0 24 24"><title>Group</title><g fill-rule="evenodd" stroke-linejoin="round"><path d="M23.5 19.5a4 4 0 0 1-4 4h-15a4 4 0 0 1-4-4v-15a4 4 0 0 1 4-4h15a4 4 0 0 1 4 4v15zM.5 8.5h7.205M16.27 8.5h7.255"/><path d="M17.5 12a5.5 5.5 0 1 1-11 0 5.5 5.5 0 0 1 11 0zM21.5 6.5h-3v-3h3zM2.5 1v7.5M4.5.5v8M6.5.5v8"/></g></symbol><symbol id="ico-itunes" viewBox="0 0 20 23"><title>Group</title><g fill-rule="evenodd" stroke-linecap="round" stroke-linejoin="round"><path d="M4.487 13.445a6.5 6.5 0 1 1 11.016.015M3.003 16.426a9.5 9.5 0 1 1 14.021-.027"/><path d="M13.253 15.72a1.998 1.998 0 0 0-1.987-2.22H8.735a2.004 2.004 0 0 0-1.99 2.22l.558 5A1.999 1.999 0 0 0 9.29 22.5h1.42c1.02 0 1.875-.765 1.987-1.78l.556-5zM12.5 9.042a2.5 2.5 0 1 1-5 0 2.5 2.5 0 0 1 5 0z"/></g></symbol><symbol id="ico-musicnote-sq" viewBox="0 0 24 24"><title>Group 959</title><g fill-rule="evenodd" stroke-linecap="round" stroke-linejoin="round"><path d="M3.5 20.5h20V.5h-20z"/><path d="M13.5 15.25c0 1.125-1.007 2.25-2.25 2.25C10.008 17.5 9 16.243 9 15s1.008-2.5 2.25-2.5h2.25v2.75zM13.5 14.5l.021-11.328c0 2.73 5.122 1.661 2.764 8.328l-.43 1.125"/><path d="M3.5 4.5h-3v19h19v-3"/></g></symbol><symbol id="ico-muted" viewBox="0 0 22 21"><title>Group 325</title><g fill-rule="evenodd" stroke-linecap="round" stroke-linejoin="round"><path d="M9 17l3.5 3.5V12M12.5 6V.5l-7 7H2A1.5 1.5 0 0 0 .5 9v3A1.5 1.5 0 0 0 2 13.5h2.5M15.5 10.5A2.5 2.5 0 0 1 13 13h-.5M1.5 20.5l20-20"/></g></symbol><symbol id="ico-notes" viewBox="0 0 22 21"><title>Group 119</title><g fill-rule="evenodd" stroke-linecap="round" stroke-linejoin="round"><path d="M17 20.5H2.5a2 2 0 0 1-2-2v-16a2 2 0 0 1 2-2h17a2 2 0 0 1 2 2v13l-4.5 5z"/><path d="M16.5 20.5v-5h5M3 5.5h16M3 10.5h16M3 15.5h11M6.5 18V3"/></g></symbol><symbol id="ico-on-air" viewBox="0 0 24 24"><title>Group 279</title><g fill-rule="evenodd" stroke-linecap="round" stroke-linejoin="round"><path d="M23.5 21.5a2 2 0 0 1-2 2h-19a2 2 0 0 1-2-2v-5a2 2 0 0 1 2-2h19a2 2 0 0 1 2 2v5zM15.5 8.5c0 1.657-.843 3-2.5 3h-3c-1.657 0-2.5-1.343-2.5-3v-5c0-1.656.843-3 2.5-3h3c1.657 0 2.5 1.344 2.5 3v5zM11.5 9v5.5M7.5 4.5h3M7.5 6.5h3M15.5 4.5h-2M15.5 6.5h-2"/><path d="M7.5 20.5v-3l2 3v-3M5.5 19c0 1.093-.068 1.5-1 1.5-.933 0-1-.407-1-1.5s.067-1.5 1-1.5c.932 0 1 .407 1 1.5zM16.5 20.5v-3M14.69 20.5l-1.095-3-1.095 3M12.683 20h1.824M18.5 20.5v-3h.794c.788 0 .926-.004.926.531s-.138.969-.926.969H18.5M19.294 19l.926 1.5"/></g></symbol><symbol id="ico-paper-airplane" viewBox="0 0 24 22"><title>Group 195</title><g fill-rule="evenodd" stroke-linejoin="round"><path d="M23.5.5L.5 10l9 3.5z"/><path d="M23.5.5l-4 18.5-10-5.5zM9.5 13.5v8l3.5-6"/></g></symbol><symbol id="ico-pause-o" viewBox="0 0 24 24"><title>Group 313</title><g fill-rule="evenodd" stroke-linecap="round" stroke-linejoin="round"><path d="M23.5 12c0 6.352-5.149 11.5-11.5 11.5C5.648 23.5.5 18.352.5 12S5.648.5 12 .5C18.351.5 23.5 5.648 23.5 12z"/><path d="M7.5 16.5h3v-9h-3zM13.5 16.5h3v-9h-3z"/></g></symbol><symbol id="ico-play-o" viewBox="0 0 24 24"><title>Group 316</title><g fill-rule="evenodd" stroke-linecap="round" stroke-linejoin="round"><path d="M23.5 12c0 6.352-5.149 11.5-11.5 11.5C5.648 23.5.5 18.352.5 12S5.648.5 12 .5C18.351.5 23.5 5.648 23.5 12z"/><path d="M8.5 16.5v-9l9 4.5z"/></g></symbol><symbol id="ico-play-sq" viewBox="0 0 24 24"><title>Group 958</title><g fill-rule="evenodd" stroke-linecap="round" stroke-linejoin="round"><path d="M3.5 4.5h-3v19h19v-3"/><path d="M3.5 20.5h20V.5h-20z"/><path d="M10.5 6.5l7.5 3.667-7.5 4.333z"/></g></symbol><symbol id="ico-podcast" viewBox="0 0 20 23"><title>Group</title><g fill-rule="evenodd" stroke-linecap="round" stroke-linejoin="round"><path d="M4.487 13.445a6.5 6.5 0 1 1 11.016.015M3.003 16.426a9.5 9.5 0 1 1 14.021-.027"/><path d="M13.253 15.72a1.998 1.998 0 0 0-1.987-2.22H8.735a2.004 2.004 0 0 0-1.99 2.22l.558 5A1.999 1.999 0 0 0 9.29 22.5h1.42c1.02 0 1.875-.765 1.987-1.78l.556-5zM12.5 9.042a2.5 2.5 0 1 1-5 0 2.5 2.5 0 0 1 5 0z"/></g></symbol><symbol id="ico-question-mark-o" viewBox="0 0 23 23"><title>Group 1196</title><g fill-rule="evenodd" stroke-linejoin="round"><path d="M22.5 11.5c0 6.075-4.925 11-11 11s-11-4.925-11-11 4.925-11 11-11 11 4.925 11 11z" stroke-linecap="round"/><path d="M8.5 9a3 3 0 1 1 3 3v3" stroke-linecap="round"/><path d="M12 17.5a.5.5 0 1 1-1 0 .5.5 0 0 1 1 0z"/></g></symbol><symbol id="ico-rss" viewBox="0 0 24 24"><title>Group 1177</title><g fill-rule="evenodd" stroke-linejoin="round"><path d="M5 10.5a8.5 8.5 0 0 1 8.5 8.5M5 5.5c7.456 0 13.5 6.043 13.5 13.5M8.5 17a1.5 1.5 0 1 1-3.001-.001A1.5 1.5 0 0 1 8.5 17z"/><path d="M23.5 20.5c0 1.65-1.35 3-3 3h-17c-1.65 0-3-1.35-3-3v-17c0-1.65 1.35-3 3-3h17c1.65 0 3 1.35 3 3v17z"/></g></symbol><symbol id="ico-share" viewBox="0 0 17 24"><title>Group 1182</title><g fill-rule="evenodd" stroke-linecap="round" stroke-linejoin="round"><path d="M8.5 13.5V.5M4 5L8.5.5 13 5M11.5 8.5h5v15H.5v-15h5"/></g></symbol><symbol id="ico-show" viewBox="0 0 24 24"><title>Group 214</title><g fill-rule="evenodd" stroke-linecap="round" stroke-linejoin="round"><path d="M23.5 8.5a8 8 0 1 1-16 0 8 8 0 0 1 16 0z"/><path d="M10.209 14.5H3a2.5 2.5 0 1 0 0 5h17.5a2 2 0 0 1 0 4h-10M17 8.5a1.5 1.5 0 1 1-3.001-.001A1.5 1.5 0 0 1 17 8.5zM16.839 5.288L17.795 3c-1.42-.5-3.061-.654-4.592-.022v-.01l.957 2.304a3.49 3.49 0 0 1 2.678.007v.01zM12.5 7.16L10 6.204v.001c-.5 1.42-.655 3.06-.022 4.591l-.011.001 2.422-.956C12.02 8.947 12 7.99 12.5 7.162V7.16zM14.16 11.5l-.957 2.5h.002c1.418.5 3.06.655 4.59.021l.001.012-.957-2.422c-.894.369-1.85.389-2.678-.111zM18.5 9.84l2.5.956v-.001c.5-1.418.654-3.06.022-4.591l.01-.001-2.421.957c.369.893.389 1.852-.111 2.678v.003z"/></g></symbol><symbol id="ico-stitcher" viewBox="0 0 24 22"><title>ico-stitcher</title><g fill-rule="evenodd"><path d="M1 18h2V5H1zM5 18h2V5H5zM9 18h5V5H9zM19.5 18h4V5h-4zM16 21.5h1.5V.5H16z"/></g></symbol><symbol id="ico-subscribe" viewBox="0 0 23 21"><title>Group 1188</title><g fill-rule="evenodd" stroke-linejoin="round"><path d="M11.5 11.5V20M19.132.5A11.468 11.468 0 0 1 22.5 8.633a11.46 11.46 0 0 1-3.368 8.131M16.303 3.33A7.471 7.471 0 0 1 18.5 8.632c0 2.07-.84 3.945-2.197 5.302M3.868.5A11.468 11.468 0 0 0 .5 8.633a11.46 11.46 0 0 0 3.368 8.131M6.696 3.33A7.475 7.475 0 0 0 4.5 8.632c0 2.07.84 3.945 2.196 5.302" stroke-linecap="round"/><path d="M14.5 8.5a3.001 3.001 0 0 1-6 0 3 3 0 0 1 6 0z"/></g></symbol><symbol id="ico-twitter" viewBox="0 0 24 19"><title>Stroke 39</title><path d="M23.407 2.834c-.814.363-1.5.375-2.228.016.94-.562.982-.956 1.321-2.019-.878.521-1.85.9-2.886 1.105a4.545 4.545 0 0 0-7.743 4.144 12.896 12.896 0 0 1-9.366-4.749 4.532 4.532 0 0 0-.616 2.286c0 1.577.803 2.967 2.022 3.782a4.535 4.535 0 0 1-2.058-.568v.057a4.548 4.548 0 0 0 3.645 4.456 4.56 4.56 0 0 1-2.053.078 4.551 4.551 0 0 0 4.245 3.156 9.134 9.134 0 0 1-6.727 1.881A12.863 12.863 0 0 0 7.93 18.5c8.358 0 12.927-6.924 12.927-12.929 0-.198-.003-.392-.012-.588.887-.64 1.954-1.237 2.563-2.149z" fill-rule="evenodd" stroke-linejoin="round"/></symbol><symbol id="ico-unmuted" viewBox="0 0 24 21"><title>Group 322</title><g fill-rule="evenodd" stroke-linecap="round" stroke-linejoin="round"><path d="M5.5 7.5H2A1.5 1.5 0 0 0 .5 9v3A1.5 1.5 0 0 0 2 13.5h3.5l7 7V.5l-7 7zM20 2.5c4.669 4.083 4.663 11.922 0 16M17.5 4.5c3.959 3.268 3.98 8.707 0 12M15.5 7c2.677 1.947 2.669 5.061 0 7"/></g></symbol><symbol id="ico-youtube" viewBox="0 0 23 23"><title>Group</title><g fill-rule="evenodd" stroke-linejoin="round"><path d="M22.5 18.5a4 4 0 0 1-4 4h-14a4 4 0 0 1-4-4v-3a4 4 0 0 1 4-4h14a4 4 0 0 1 4 4v3z"/><path stroke-linecap="round" d="M3.475.064L6.5 3.963v4.539M9.523.061L6.5 3.962l.001 4.54M12.501 7A1.5 1.5 0 0 1 9.5 7V4a1.5 1.5 0 1 1 3 0l.001 3zM18.5 2.498l.001 4a2 2 0 0 1-4 0l-.001-4M18.5 2.498l.001 5.907M10.5 15.498l.001 3.907M3.478 14.5H7.52M5.5 14.5v4.979M12.5 13.5v5.979M14.5 18.5a1 1 0 1 1-2 0v-2a1 1 0 1 1 2 0v2zM8.5 15.498V18.5a1 1 0 1 0 2 0v-3.002M18.672 18.75c0 .553-.533.875-1.086.875S16.5 19.052 16.5 18.5v-2a1 1 0 1 1 2 0v1h-2"/></g></symbol></svg>