<svg xmlns="http://www.w3.org/2000/svg"><symbol id="ico-facebook" viewBox="0 0 14 24"><title>Stroke 29</title><path d="M12.768 7.5H8.5V5.595c0-.896.594-1.105 1.012-1.105H12.5V.548L8.17.535c-3.925 0-4.67 2.939-4.67 4.82V7.5h-3v4h3v12h5v-12h3.85l.418-4z" fill-rule="evenodd" stroke-linejoin="round"/></symbol><symbol id="ico-instagram" viewBox="0 0 24 24"><title>Group</title><g fill-rule="evenodd" stroke-linejoin="round"><path d="M23.5 19.5a4 4 0 0 1-4 4h-15a4 4 0 0 1-4-4v-15a4 4 0 0 1 4-4h15a4 4 0 0 1 4 4v15zM.5 8.5h7.205M16.27 8.5h7.255"/><path d="M17.5 12a5.5 5.5 0 1 1-11 0 5.5 5.5 0 0 1 11 0zM21.5 6.5h-3v-3h3zM2.5 1v7.5M4.5.5v8M6.5.5v8"/></g></symbol><symbol id="ico-musicnote-sq" viewBox="0 0 24 24"><title>Group 959</title><g fill-rule="evenodd" stroke-linecap="round" stroke-linejoin="round"><path d="M3.5 20.5h20V.5h-20z"/><path d="M13.5 15.25c0 1.125-1.007 2.25-2.25 2.25C10.008 17.5 9 16.243 9 15s1.008-2.5 2.25-2.5h2.25v2.75zM13.5 14.5l.021-11.328c0 2.73 5.122 1.661 2.764 8.328l-.43 1.125"/><path d="M3.5 4.5h-3v19h19v-3"/></g></symbol><symbol id="ico-play-sq" viewBox="0 0 24 24"><title>Group 958</title><g fill-rule="evenodd" stroke-linecap="round" stroke-linejoin="round"><path d="M3.5 4.5h-3v19h19v-3"/><path d="M3.5 20.5h20V.5h-20z"/><path d="M10.5 6.5l7.5 3.667-7.5 4.333z"/></g></symbol><symbol id="ico-podcast" viewBox="0 0 20 23"><title>Group</title><g fill-rule="evenodd" stroke-linecap="round" stroke-linejoin="round"><path d="M4.487 13.445a6.5 6.5 0 1 1 11.016.015M3.003 16.426a9.5 9.5 0 1 1 14.021-.027"/><path d="M13.253 15.72a1.998 1.998 0 0 0-1.987-2.22H8.735a2.004 2.004 0 0 0-1.99 2.22l.558 5A1.999 1.999 0 0 0 9.29 22.5h1.42c1.02 0 1.875-.765 1.987-1.78l.556-5zM12.5 9.042a2.5 2.5 0 1 1-5 0 2.5 2.5 0 0 1 5 0z"/></g></symbol><symbol id="ico-twitter" viewBox="0 0 24 19"><title>Stroke 39</title><path d="M23.407 2.834c-.814.363-1.5.375-2.228.016.94-.562.982-.956 1.321-2.019-.878.521-1.85.9-2.886 1.105a4.545 4.545 0 0 0-7.743 4.144 12.896 12.896 0 0 1-9.366-4.749 4.532 4.532 0 0 0-.616 2.286c0 1.577.803 2.967 2.022 3.782a4.535 4.535 0 0 1-2.058-.568v.057a4.548 4.548 0 0 0 3.645 4.456 4.56 4.56 0 0 1-2.053.078 4.551 4.551 0 0 0 4.245 3.156 9.134 9.134 0 0 1-6.727 1.881A12.863 12.863 0 0 0 7.93 18.5c8.358 0 12.927-6.924 12.927-12.929 0-.198-.003-.392-.012-.588.887-.64 1.954-1.237 2.563-2.149z" fill-rule="evenodd" stroke-linejoin="round"/></symbol><symbol id="ico-youtube" viewBox="0 0 23 23"><title>Group</title><g fill-rule="evenodd" stroke-linejoin="round"><path d="M22.5 18.5a4 4 0 0 1-4 4h-14a4 4 0 0 1-4-4v-3a4 4 0 0 1 4-4h14a4 4 0 0 1 4 4v3z"/><path stroke-linecap="round" d="M3.475.064L6.5 3.963v4.539M9.523.061L6.5 3.962l.001 4.54M12.501 7A1.5 1.5 0 0 1 9.5 7V4a1.5 1.5 0 1 1 3 0l.001 3zM18.5 2.498l.001 4a2 2 0 0 1-4 0l-.001-4M18.5 2.498l.001 5.907M10.5 15.498l.001 3.907M3.478 14.5H7.52M5.5 14.5v4.979M12.5 13.5v5.979M14.5 18.5a1 1 0 1 1-2 0v-2a1 1 0 1 1 2 0v2zM8.5 15.498V18.5a1 1 0 1 0 2 0v-3.002M18.672 18.75c0 .553-.533.875-1.086.875S16.5 19.052 16.5 18.5v-2a1 1 0 1 1 2 0v1h-2"/></g></symbol></svg>