<svg version="1.1" id="Layer_1" xmlns="http://www.w3.org/2000/svg" xmlns:xlink="http://www.w3.org/1999/xlink" x="0px" y="0px"
	 viewBox="0 0 750 111" style="enable-background:new 0 0 750 111;" xml:space="preserve">
<g>
	<g>
		<path class="st0" d="M90.6,27.6v47.4h-48V29.5c0-1,0.8-1.8,1.8-1.8H90.6 M93.3,24.9H44.4c-2.5,0-4.6,2.1-4.6,4.6v48.3h53.5V24.9
			L93.3,24.9z"/>
		<path class="st0" d="M78.1,46.9v45.6c0,1-0.8,1.8-1.8,1.8H30.1V46.9H78.1 M80.9,44.2H27.4v52.9h48.9c2.5,0,4.6-2.1,4.6-4.6V44.2
			L80.9,44.2z"/>
	</g>
	<rect x="78.1" y="80.4" class="st0" width="2.8" height="5.5"/>
	<path class="st0" d="M94.9,33.9c1,0,1.8,0.8,1.8,1.8v50.6c0,1-0.8,1.8-1.8,1.8H25.8c-1,0-1.8-0.8-1.8-1.8V35.7c0-1,0.8-1.8,1.8-1.8
		H94.9 M94.9,31.1H25.8c-2.5,0-4.6,2.1-4.6,4.6v50.6c0,2.5,2.1,4.6,4.6,4.6h69.2c2.5,0,4.6-2.1,4.6-4.6V35.7
		C99.6,33.2,97.5,31.1,94.9,31.1L94.9,31.1z M84.8,62.2v19.6H37.7c-1,0-1.8-0.8-1.8-1.8V42c0-1,0.8-1.8,1.8-1.8h47.1v19.6h2.8V37.4
		H37.7c-2.5,0-4.6,2.1-4.6,4.6V80c0,2.5,2.1,4.6,4.6,4.6h49.8V62.2H84.8z M60.4,59.4c-0.9,0-1.6,0.7-1.6,1.6s0.7,1.6,1.6,1.6
		s1.6-0.7,1.6-1.6S61.2,59.4,60.4,59.4z M43.6,31.1h-4.8v2.8h4.8V31.1z M82,88.1H77v2.8H82V88.1z"/>
</g>
<g>
	<circle class="st1" cx="520.6" cy="60.8" r="2.9"/>
	<g>
		<path class="st1" d="M160.3,54.8v12.4c0,5.3-2.7,8.7-8.4,8.7h-20.5c-5.8,0-8.4-3.5-8.4-8.7V54.8c0-5.3,2.7-8.7,8.4-8.7h20.5
			C157.6,46.1,160.3,49.6,160.3,54.8z M154.8,54.8c0-2.9-0.8-3.8-2.9-3.8h-20.5c-2.1,0-2.9,0.9-2.9,3.8v12.4c0,2.9,0.8,3.8,2.9,3.8
			h20.5c2.1,0,2.9-0.9,2.9-3.8V54.8z"/>
		<path class="st1" d="M200.3,54.7v3.2c0,5.1-2.6,8.4-8.5,8.4h-20.9v8.9c0,0.4-0.2,0.6-0.6,0.6H166c-0.4,0-0.6-0.2-0.6-0.6V46.9
			c0-0.4,0.2-0.6,0.6-0.6h25.8C197.7,46.3,200.3,49.5,200.3,54.7z M194.8,54.7c0-2.7-0.8-3.4-2.9-3.4h-20.9v10h20.9
			c2.1,0,2.9-0.7,2.9-3.4V54.7z"/>
		<path class="st1" d="M210,51.3v7.4h23.6c0.4,0,0.6,0.2,0.6,0.6V63c0,0.4-0.2,0.6-0.6,0.6H210v7.1h26.4c0.4,0,0.6,0.2,0.6,0.6v3.7
			c0,0.4-0.2,0.6-0.6,0.6h-31.3c-0.4,0-0.6-0.2-0.6-0.6V46.9c0-0.4,0.2-0.6,0.6-0.6h31.1c0.4,0,0.6,0.2,0.6,0.6v3.7
			c0,0.4-0.2,0.6-0.6,0.6H210z"/>
		<path class="st1" d="M277.3,46.9v28.1c0,0.4-0.2,0.6-0.6,0.6h-5.5c-0.3,0-0.4-0.2-0.8-0.5L247,52.9v22.1c0,0.4-0.2,0.6-0.6,0.6
			h-4.3c-0.4,0-0.6-0.2-0.6-0.6V46.9c0-0.4,0.2-0.6,0.6-0.6h5.5c0.3,0,0.4,0.2,0.8,0.5L271.7,69V46.9c0-0.4,0.2-0.6,0.6-0.6h4.3
			C277.1,46.3,277.3,46.5,277.3,46.9z"/>
		<path class="st1" d="M331.2,67.3c0,5.7-3.2,8.7-9,8.7h-19.1c-5.5,0-8.1-3.1-8.4-7.6c0-0.6,0.3-0.9,0.8-0.9h3.8
			c0.5,0,0.9,0.3,0.9,0.9c0.2,2,1,2.6,2.9,2.6h19.1c2.2,0,3.4-0.8,3.4-3.7c0-3-1.6-3.9-4.4-4.2L303.6,62c-5.5-0.3-8.7-3.1-8.7-8.2
			c0-4.6,2.8-7.7,8.6-7.7h18.3c5.4,0,8.1,3.1,8.4,7.5c0,0.6-0.3,0.9-0.8,0.9h-3.8c-0.5,0-0.9-0.3-0.9-0.9c-0.2-1.8-1.1-2.5-2.8-2.5
			h-18.3c-2.1,0-3,0.6-3,2.7c0,2,0.4,3.4,3.4,3.5l17.6,1.1C326.6,58.7,331.2,60.8,331.2,67.3z"/>
		<path class="st1" d="M372.9,54.8v12.4c0,5.3-2.7,8.7-8.4,8.7H344c-5.8,0-8.4-3.5-8.4-8.7V54.8c0-5.3,2.7-8.7,8.4-8.7h20.5
			C370.2,46.1,372.9,49.6,372.9,54.8z M367.4,54.8c0-2.9-0.8-3.8-2.9-3.8H344c-2.1,0-2.9,0.9-2.9,3.8v12.4c0,2.9,0.8,3.8,2.9,3.8
			h20.5c2.1,0,2.9-0.9,2.9-3.8V54.8z"/>
		<path class="st1" d="M414.5,47.2v20c0,5.4-2.6,8.7-8.4,8.7h-19.6c-5.8,0-8.5-3.4-8.5-8.7v-20c0-0.6,0.3-0.9,0.9-0.9h3.8
			c0.6,0,0.9,0.3,0.9,0.9v20c0,2.8,0.9,3.8,2.9,3.8H406c2,0,2.9-1,2.9-3.8v-20c0-0.6,0.3-0.9,0.9-0.9h3.8
			C414.2,46.3,414.5,46.6,414.5,47.2z"/>
		<path class="st1" d="M455,75.7h-4c-0.5,0-0.8-0.2-1.1-0.7l-4.4-8.8h-20.1v8.9c0,0.4-0.2,0.6-0.6,0.6h-4.3c-0.4,0-0.6-0.2-0.6-0.6
			V46.9c0-0.4,0.2-0.6,0.6-0.6h25.8c5.8,0,8.5,3.2,8.5,8.4v3.2c0,3.4-1.2,6.1-3.8,7.4l4.7,9.5C456,75.3,455.7,75.7,455,75.7z
			 M425.5,61.2h20.9c2.1,0,2.9-0.7,2.9-3.4v-3.2c0-2.7-0.8-3.4-2.9-3.4h-20.9V61.2z"/>
		<path class="st1" d="M496.9,67.6c-0.3,5.1-2.9,8.3-8.4,8.3h-20c-5.8,0-8.4-3.5-8.4-8.7V54.8c0-5.3,2.7-8.7,8.4-8.7h20
			c5.5,0,8.1,3.2,8.4,8.3c0,0.6-0.3,0.9-0.8,0.9h-3.8c-0.5,0-0.9-0.3-0.9-0.9c-0.1-2.6-1-3.3-2.9-3.3h-20c-2,0-2.9,0.9-2.9,3.8v12.4
			c0,2.9,0.9,3.8,2.9,3.8h20c1.8,0,2.7-0.7,2.9-3.3c0-0.6,0.4-0.9,0.9-0.9h3.8C496.6,66.8,496.9,67,496.9,67.6z"/>
		<path class="st1" d="M507.5,51.3v19.5h26.4c0.4,0,0.6,0.2,0.6,0.6v3.7c0,0.4-0.2,0.6-0.6,0.6h-31.3c-0.4,0-0.6-0.2-0.6-0.6V46.9
			c0-0.4,0.2-0.6,0.6-0.6h31.1c0.4,0,0.6,0.2,0.6,0.6v3.7c0,0.4-0.2,0.6-0.6,0.6H507.5z"/>
		<path class="st1" d="M575.4,67.6c-0.3,5.1-2.9,8.3-8.4,8.3h-20c-5.8,0-8.4-3.5-8.4-8.7V54.8c0-5.3,2.7-8.7,8.4-8.7h20
			c5.5,0,8.1,3.2,8.4,8.3c0,0.6-0.3,0.9-0.8,0.9h-3.8c-0.5,0-0.9-0.3-0.9-0.9c-0.1-2.6-1.1-3.3-2.9-3.3h-20c-2,0-2.9,0.9-2.9,3.8
			v12.4c0,2.9,0.9,3.8,2.9,3.8h20c1.8,0,2.7-0.7,2.9-3.3c0-0.6,0.4-0.9,0.9-0.9h3.8C575.1,66.8,575.4,67,575.4,67.6z"/>
		<path class="st1" d="M615.5,75.7h-4c-0.5,0-0.8-0.2-1.1-0.7l-4.4-8.8h-20.1v8.9c0,0.4-0.2,0.6-0.6,0.6H581c-0.4,0-0.6-0.2-0.6-0.6
			V46.9c0-0.4,0.2-0.6,0.6-0.6h25.8c5.8,0,8.5,3.2,8.5,8.4v3.2c0,3.4-1.2,6.1-3.8,7.4l4.7,9.5C616.5,75.3,616.2,75.7,615.5,75.7z
			 M585.9,61.2h20.9c2.1,0,2.9-0.7,2.9-3.4v-3.2c0-2.7-0.8-3.4-2.9-3.4h-20.9V61.2z"/>
		<path class="st1" d="M658.3,75.7h-4.8c-0.4,0-0.6-0.3-0.9-0.7l-3.1-5.1h-20.6l-3.1,5.1c-0.3,0.5-0.5,0.7-0.9,0.7h-4.8
			c-0.4,0-0.8-0.3-0.5-0.7l17.1-28c0.3-0.4,0.4-0.7,0.8-0.7h3.5c0.4,0,0.5,0.3,0.8,0.7l17.1,28C659.1,75.5,658.8,75.7,658.3,75.7z
			 M646.6,65l-7.4-12.3L631.8,65H646.6z"/>
		<path class="st1" d="M668.5,58.6h23.3c0.4,0,0.6,0.2,0.6,0.6V63c0,0.4-0.2,0.6-0.6,0.6h-23.3v11.5c0,0.4-0.2,0.6-0.6,0.6h-4.3
			c-0.4,0-0.6-0.2-0.6-0.6V46.9c0-0.4,0.2-0.6,0.6-0.6h31.1c0.4,0,0.6,0.2,0.6,0.6v3.7c0,0.4-0.2,0.6-0.6,0.6h-26.2V58.6z"/>
		<path class="st1" d="M733.6,46.9v3.7c0,0.4-0.2,0.6-0.6,0.6h-14.2v23.8c0,0.4-0.2,0.6-0.6,0.6h-4.3c-0.4,0-0.6-0.2-0.6-0.6V51.3
			h-14.3c-0.4,0-0.6-0.2-0.6-0.6v-3.7c0-0.4,0.2-0.6,0.6-0.6h34.1C733.4,46.3,733.6,46.5,733.6,46.9z"/>
	</g>
</g>
</svg>
